<svg xmlns="http://www.w3.org/2000/svg" xmlns:xlink="http://www.w3.org/1999/xlink" version="1.1" x="0px" y="0px" viewBox="0 0 100 125" enable-background="new 0 0 100 100" xml:space="preserve">
    <style>
        .fil0 {fill:white;}
    </style>
    <path class="fil0" d="M56,59c0-1.657,1.343-3,3-3s3,1.343,3,3c0,1.657-1.343,3-3,3S56,60.657,56,59z"/><path class="fil0" d="M47,38c0-1.657,1.343-3,3-3s3,1.343,3,3c0,1.657-1.343,3-3,3S47,39.657,47,38z"/><path class="fil0" d="M35,54.5c0-2.485,2.015-4.5,4.5-4.5s4.5,2.015,4.5,4.5S41.985,59,39.5,59S35,56.985,35,54.5z"/><path class="fil0" d="M13.225,64.303c-1.434,0.829-1.926,2.663-1.099,4.099l3,5.197c0.825,1.427,2.658,1.928,4.099,1.099  c1.434-0.829,1.926-2.663,1.099-4.099l0,0l5.361-3.096c1.85,2.563,4.091,4.816,6.641,6.684l-2.806,4.126  c-0.933,1.371-0.577,3.236,0.792,4.167c1.368,0.93,3.233,0.581,4.167-0.792l3.025-4.448c2.945,1.357,6.132,2.273,9.495,2.609V86  c-1.657,0-3,1.343-3,3s1.343,3,3,3h6c1.657,0,3-1.343,3-3s-1.343-3-3-3v-6.152c3.363-0.335,6.55-1.252,9.495-2.609l3.025,4.448  c0.935,1.374,2.799,1.723,4.167,0.792c1.37-0.932,1.726-2.796,0.792-4.167l-2.806-4.126c2.549-1.868,4.791-4.121,6.641-6.684  l5.361,3.096l0,0c-0.828,1.436-0.335,3.27,1.099,4.099c1.44,0.829,3.273,0.328,4.099-1.099l3-5.197  c0.828-1.436,0.335-3.27-1.099-4.099c-1.443-0.831-3.27-0.337-4.098,1.098l-5.349-3.089c1.309-2.894,2.192-6.02,2.521-9.312H83  c1.657,0,3-1.343,3-3s-1.343-3-3-3h-3.152c-0.328-3.293-1.211-6.418-2.521-9.312l5.349-3.089c0.836,1.444,2.67,1.921,4.098,1.098  c1.434-0.829,1.926-2.663,1.099-4.099l-3-5.197c-0.831-1.436-2.663-1.929-4.099-1.099c-1.434,0.829-1.926,2.663-1.099,4.099l0,0  l-5.361,3.096c-1.85-2.563-4.091-4.816-6.641-6.684l2.806-4.126c0.933-1.371,0.577-3.236-0.792-4.167  c-1.371-0.932-3.236-0.576-4.167,0.792l-3.025,4.448c-2.945-1.357-6.132-2.273-9.495-2.609V14c1.657,0,3-1.343,3-3s-1.343-3-3-3h-6  c-1.657,0-3,1.343-3,3s1.343,3,3,3v6.152c-3.363,0.335-6.55,1.252-9.495,2.609l-3.025-4.448c-0.93-1.368-2.796-1.726-4.167-0.792  c-1.37,0.932-1.726,2.796-0.792,4.167l2.806,4.126c-2.549,1.868-4.791,4.121-6.641,6.684l-5.361-3.096l0,0  c0.828-1.436,0.335-3.27-1.099-4.099c-1.441-0.831-3.27-0.337-4.099,1.099l-3,5.197c-0.828,1.436-0.335,3.27,1.099,4.099  c1.428,0.822,3.262,0.346,4.098-1.098l5.349,3.089c-1.309,2.894-2.192,6.02-2.521,9.312H17c-1.657,0-3,1.343-3,3s1.343,3,3,3h3.152  c0.328,3.293,1.211,6.418,2.521,9.312l-5.349,3.089C16.491,63.966,14.662,63.472,13.225,64.303z M50,26c13.233,0,24,10.767,24,24  S63.233,74,50,74S26,63.233,26,50S36.767,26,50,26z"/></svg>
