<svg xmlns="http://www.w3.org/2000/svg" xmlns:xlink="http://www.w3.org/1999/xlink" xml:space="preserve" version="1.1" style="shape-rendering:geometricPrecision;text-rendering:geometricPrecision;image-rendering:optimizeQuality;" viewBox="0 0 362.58 412" x="0px" y="0px" fill-rule="evenodd" clip-rule="evenodd"><defs><style type="text/css">

    .fil0 {fill:white;fill-rule:nonzero}

  </style></defs><g><path class="fil0" d="M222 23.6l134.36 235.97c17.81,31.21 -4.78,70.03 -40.7,70.03l-268.74 0c-35.92,0 -58.51,-38.82 -40.7,-70.03l134.36 -235.97c17.88,-31.47 63.53,-31.44 81.42,0zm112.34 248.47l-134.36 -235.97c-8.21,-14.42 -29.17,-14.42 -37.38,0l-134.36 235.97c-8.24,14.47 2,32.13 18.68,32.13l268.74 0c16.68,0 26.92,-17.66 18.68,-32.13z"/><path class="fil0" d="M168.59 115.88c0,-7.01 5.69,-12.7 12.7,-12.7 7.01,0 12.7,5.69 12.7,12.7l0 91.41c0,7.01 -5.69,12.7 -12.7,12.7 -7.01,0 -12.7,-5.69 -12.7,-12.7l0 -91.41z"/><path class="fil0" d="M197.35 257.42c0,8.92 -7.2,16.12 -16.06,16.12 -8.86,0 -16.05,-7.2 -16.05,-16.06 0,-8.98 7.19,-16.18 16.05,-16.18 8.86,0 16.06,7.2 16.06,16.12z"/></g><text x="0" y="344.6" fill="#000000" font-size="5px" font-weight="bold" font-family="'Helvetica Neue', Helvetica, Arial-Unicode, Arial, Sans-serif">Created by Vincencio</text><text x="0" y="349.6" fill="#000000" font-size="5px" font-weight="bold" font-family="'Helvetica Neue', Helvetica, Arial-Unicode, Arial, Sans-serif">from the Noun Project</text></svg>
