<svg xmlns="http://www.w3.org/2000/svg" xmlns:xlink="http://www.w3.org/1999/xlink" xml:space="preserve" version="1.1" style="shape-rendering:geometricPrecision;text-rendering:geometricPrecision;image-rendering:optimizeQuality;" viewBox="0 0 333 416.25" x="0px" y="0px" fill-rule="evenodd" clip-rule="evenodd"><defs><style type="text/css">

    .str0 {stroke:black;stroke-width:6.94488}
    .fil0 {fill:none}
    .fil1 {fill:white}

  </style></defs><g><path class="fil0 str0" d="M-3149 -5611c0,0 -580,-73 -854,-451 0,0 -785,753 0,1746 0,0 323,-455 854,-455l125 4c0,0 545,69 854,430 0,0 769,-810 -12,-1720 -287,380 -967,446 -967,446z"/><rect class="fil0 str0" x="-3156" y="-6116" width="118" height="2757"/><path class="fil1" d="M47 221c-1,71 78,95 78,95 -49,-60 15,-68 16,-115 9,3 10,31 10,31 22,-11 23,-61 23,-61 58,55 26,143 26,143 82,-18 81,-101 81,-101 -1,-82 -65,-130 -61,-116 5,14 -5,28 -5,28 -19,-75 -75,-76 -75,-76 8,61 -32,97 -32,97 -26,-51 -24,-29 -29,2 -38,43 -32,73 -32,73z"/></g><text x="0" y="348" fill="#000000" font-size="5px" font-weight="bold" font-family="'Helvetica Neue', Helvetica, Arial-Unicode, Arial, Sans-serif">Created by Angriawan Ditya Zulkarnain</text><text x="0" y="353" fill="#000000" font-size="5px" font-weight="bold" font-family="'Helvetica Neue', Helvetica, Arial-Unicode, Arial, Sans-serif">from the Noun Project</text></svg>
