<svg xmlns="http://www.w3.org/2000/svg" xmlns:xlink="http://www.w3.org/1999/xlink" version="1.1" x="0px" y="0px" viewBox="0 0 32 40" enable-background="new 0 0 32 32" xml:space="preserve">
    <style>
        .fil0 {fill:white;}
    </style>
    <path class="fil0" d="M12.643,16.815c-0.547-0.048-0.953-0.525-0.909-1.073c0.017-0.201,0.201-1.99,1.65-3.072c0.962-0.719,2.2-0.925,3.682-0.614  c0.54,0.113,0.886,0.644,0.772,1.184c-0.113,0.541-0.646,0.888-1.185,0.773c-0.888-0.186-1.582-0.102-2.063,0.252  c-0.75,0.551-0.861,1.635-0.863,1.646C13.578,16.9,12.643,16.815,12.643,16.815z M6.753,16.268c0-0.552-0.447-1-1-1h-2.88  c-0.553,0-1,0.448-1,1s0.447,1,1,1h2.88C6.306,17.268,6.753,16.82,6.753,16.268z M29.127,15.268h-2.88c-0.553,0-1,0.448-1,1  s0.447,1,1,1h2.88c0.553,0,1-0.448,1-1S29.68,15.268,29.127,15.268z M9.386,9.54c0.376-0.405,0.309-1.051-0.112-1.41L7.081,6.262  c-0.42-0.357-1.052-0.308-1.409,0.113c-0.358,0.42-0.309,1.051,0.112,1.41l2.192,1.868C7.977,9.653,8.75,10.225,9.386,9.54z   M16,7.25c0.553,0,1-0.448,1-1V3.37c0-0.552-0.447-1-1-1s-1,0.448-1,1v2.88C15,6.802,15.447,7.25,16,7.25z M23.62,9.653l2.192-1.868  c0.421-0.358,0.471-0.989,0.112-1.41c-0.358-0.421-0.989-0.47-1.409-0.113L22.323,8.13c-0.421,0.358-0.471,0.989-0.112,1.41  C22.211,9.54,22.766,10.234,23.62,9.653z M26.41,26.43c0,1.765-1.436,3.2-3.199,3.2H8.789c-1.764,0-3.199-1.436-3.199-3.2  c0-1.421,0.938-2.614,2.222-3.03v-7.002c0-4.515,3.673-8.188,8.188-8.188s8.188,3.673,8.188,8.188v7.002  C25.473,23.815,26.41,25.009,26.41,26.43z M9.812,16.397v6.833H15v-2.846h-0.87c-0.553,0-1-0.448-1-1s0.447-1,1-1h3.74  c0.553,0,1,0.448,1,1s-0.447,1-1,1H17v2.846h5.188v-6.833c0-3.412-2.776-6.188-6.188-6.188S9.812,12.985,9.812,16.397z M24.41,26.43  c0-0.661-0.538-1.199-1.199-1.199H8.789c-0.661,0-1.199,0.538-1.199,1.199c0,0.662,0.538,1.2,1.199,1.2h14.422  C23.872,27.63,24.41,27.091,24.41,26.43z"/></svg>
